<svg width="564" height="487" viewBox="0 0 564 487" fill="none" xmlns="http://www.w3.org/2000/svg">
<g filter="url(#filter0_d_148_64)">
<path fill-rule="evenodd" clip-rule="evenodd" d="M151.149 247.202C143.46 250.787 115.587 251.971 110.177 248.34C114.368 234.079 121.132 226.002 130.799 221.495C143.011 215.8 151.696 217.157 159.139 217.463C162.8 217.614 181.006 219.556 185.039 219.585C173.501 238.866 165.313 240.597 151.149 247.202Z" fill="url(#paint0_linear_148_64)" shape-rendering="crispEdges"/>
<path fill-rule="evenodd" clip-rule="evenodd" d="M151.149 247.202C143.46 250.787 115.587 251.971 110.177 248.34C114.368 234.079 121.132 226.002 130.799 221.495C143.011 215.8 151.696 217.157 159.139 217.463C162.8 217.614 181.006 219.556 185.039 219.585C173.501 238.866 165.313 240.597 151.149 247.202Z" stroke="#929292" stroke-opacity="0.38" shape-rendering="crispEdges"/>
</g>
<g filter="url(#filter1_d_148_64)">
<path fill-rule="evenodd" clip-rule="evenodd" d="M200.88 227.689C102.526 227.948 90.5782 277.369 90.5782 311.378C108.078 286.378 125.078 276.378 144.078 276.378C168.078 276.378 181.078 287.361 192.863 295.034C198.66 298.808 226.589 320 233.078 323.878L287.572 364.94C385.4 401.379 447.437 345.506 452.209 271.415C458.193 178.503 390.172 135.378 344.042 135.378C302.684 135.378 256.723 159.588 200.88 227.689Z" fill="url(#paint1_linear_148_64)" shape-rendering="crispEdges"/>
<path fill-rule="evenodd" clip-rule="evenodd" d="M157.578 347.878C142.467 347.878 96.5782 323.878 90.5782 311.378C108.078 286.378 125.078 276.378 144.078 276.378C168.078 276.378 181.078 287.361 192.863 295.034C198.66 298.808 226.589 320 233.078 323.878C199.937 352.118 185.415 347.878 157.578 347.878Z" fill="url(#paint2_linear_148_64)" shape-rendering="crispEdges"/>
<path d="M233.078 323.878C199.937 352.118 185.415 347.878 157.578 347.878C142.467 347.878 96.5782 323.878 90.5782 311.378C90.5782 277.369 102.526 227.948 200.88 227.689M90.5782 311.378C108.078 286.378 125.078 276.378 144.078 276.378C168.078 276.378 181.078 287.361 192.863 295.034C198.66 298.808 226.589 320 233.078 323.878L287.572 364.94C385.4 401.379 447.437 345.506 452.209 271.415C458.193 178.503 390.172 135.378 344.042 135.378C302.684 135.378 256.723 159.588 200.88 227.689M200.88 227.689C230.081 228.951 248.935 227.842 271.666 242.264" stroke="#929292" stroke-opacity="0.38" shape-rendering="crispEdges"/>
</g>
<g filter="url(#filter2_d_148_64)">
<path fill-rule="evenodd" clip-rule="evenodd" d="M157.343 348.155C142.285 348.155 96.5572 324.398 90.5782 312.024C108.017 287.277 124.957 277.378 143.891 277.378C167.806 277.378 180.761 288.25 192.504 295.845C198.28 299.581 226.111 320.559 232.578 324.398C199.553 352.351 185.083 348.155 157.343 348.155Z" fill="url(#paint3_linear_148_64)" shape-rendering="crispEdges"/>
<path fill-rule="evenodd" clip-rule="evenodd" d="M157.343 348.155C142.285 348.155 96.5572 324.398 90.5782 312.024C108.017 287.277 124.957 277.378 143.891 277.378C167.806 277.378 180.761 288.25 192.504 295.845C198.28 299.581 226.111 320.559 232.578 324.398C199.553 352.351 185.083 348.155 157.343 348.155Z" stroke="#929292" stroke-opacity="0.38" shape-rendering="crispEdges"/>
</g>
<g filter="url(#filter3_d_148_64)">
<path fill-rule="evenodd" clip-rule="evenodd" d="M173.06 185.116C123.65 206.881 98.8637 225.756 109.897 247.896C118.969 236.197 149.469 229.285 160.272 229.285C173.132 229.285 180.969 230.523 189.389 232.931C193.53 234.115 215.945 239.566 220.469 240.665L261.213 255.431C322.263 257.672 335.356 207.677 313.721 158.396C286.59 96.5959 238.37 83.4578 215.156 93.5868C194.344 102.668 179.069 128.521 173.06 185.116Z" fill="url(#paint4_linear_148_64)" shape-rendering="crispEdges"/>
<path d="M173.06 185.116C123.65 206.881 98.8638 225.756 109.897 247.896C118.969 236.197 149.469 229.285 160.272 229.285C173.132 229.285 180.969 230.523 189.389 232.931C193.53 234.115 215.945 239.566 220.469 240.665L261.213 255.431C322.263 257.672 335.356 207.677 313.721 158.396C286.59 96.5959 238.37 83.4578 215.156 93.5868C194.344 102.668 179.069 128.521 173.06 185.116ZM173.06 185.116C188.165 179.526 198.464 168.081 214.582 172.781" stroke="#4A4949" stroke-opacity="0.38" shape-rendering="crispEdges"/>
</g>
<defs>
<filter id="filter0_d_148_64" x="19.5943" y="126.601" width="276.323" height="234.444" filterUnits="userSpaceOnUse" color-interpolation-filters="sRGB">
<feFlood flood-opacity="0" result="BackgroundImageFix"/>
<feColorMatrix in="SourceAlpha" type="matrix" values="0 0 0 0 0 0 0 0 0 0 0 0 0 0 0 0 0 0 127 0" result="hardAlpha"/>
<feOffset dx="10" dy="10"/>
<feGaussianBlur stdDeviation="50"/>
<feComposite in2="hardAlpha" operator="out"/>
<feColorMatrix type="matrix" values="0 0 0 0 0 0 0 0 0 0 0 0 0 0 0 0 0 0 0.25 0"/>
<feBlend mode="normal" in2="BackgroundImageFix" result="effect1_dropShadow_148_64"/>
<feBlend mode="normal" in="SourceGraphic" in2="effect1_dropShadow_148_64" result="shape"/>
</filter>
<filter id="filter1_d_148_64" x="0.0782471" y="44.8784" width="563" height="442" filterUnits="userSpaceOnUse" color-interpolation-filters="sRGB">
<feFlood flood-opacity="0" result="BackgroundImageFix"/>
<feColorMatrix in="SourceAlpha" type="matrix" values="0 0 0 0 0 0 0 0 0 0 0 0 0 0 0 0 0 0 127 0" result="hardAlpha"/>
<feOffset dx="10" dy="10"/>
<feGaussianBlur stdDeviation="50"/>
<feComposite in2="hardAlpha" operator="out"/>
<feColorMatrix type="matrix" values="0 0 0 0 0 0 0 0 0 0 0 0 0 0 0 0 0 0 0.25 0"/>
<feBlend mode="normal" in2="BackgroundImageFix" result="effect1_dropShadow_148_64"/>
<feBlend mode="normal" in="SourceGraphic" in2="effect1_dropShadow_148_64" result="shape"/>
</filter>
<filter id="filter2_d_148_64" x="0" y="186.878" width="343.437" height="272" filterUnits="userSpaceOnUse" color-interpolation-filters="sRGB">
<feFlood flood-opacity="0" result="BackgroundImageFix"/>
<feColorMatrix in="SourceAlpha" type="matrix" values="0 0 0 0 0 0 0 0 0 0 0 0 0 0 0 0 0 0 127 0" result="hardAlpha"/>
<feOffset dx="10" dy="10"/>
<feGaussianBlur stdDeviation="50"/>
<feComposite in2="hardAlpha" operator="out"/>
<feColorMatrix type="matrix" values="0 0 0 0 0 0 0 0 0 0 0 0 0 0 0 0 0 0 0.25 0"/>
<feBlend mode="normal" in2="BackgroundImageFix" result="effect1_dropShadow_148_64"/>
<feBlend mode="normal" in="SourceGraphic" in2="effect1_dropShadow_148_64" result="shape"/>
</filter>
<filter id="filter3_d_148_64" x="16.8055" y="0" width="417.157" height="366.004" filterUnits="userSpaceOnUse" color-interpolation-filters="sRGB">
<feFlood flood-opacity="0" result="BackgroundImageFix"/>
<feColorMatrix in="SourceAlpha" type="matrix" values="0 0 0 0 0 0 0 0 0 0 0 0 0 0 0 0 0 0 127 0" result="hardAlpha"/>
<feOffset dx="10" dy="10"/>
<feGaussianBlur stdDeviation="50"/>
<feComposite in2="hardAlpha" operator="out"/>
<feColorMatrix type="matrix" values="0 0 0 0 0 0 0 0 0 0 0 0 0 0 0 0 0 0 0.25 0"/>
<feBlend mode="normal" in2="BackgroundImageFix" result="effect1_dropShadow_148_64"/>
<feBlend mode="normal" in="SourceGraphic" in2="effect1_dropShadow_148_64" result="shape"/>
</filter>
<linearGradient id="paint0_linear_148_64" x1="166.797" y1="135.299" x2="181.687" y2="260.793" gradientUnits="userSpaceOnUse">
<stop offset="0.781024" stop-color="#FF9500"/>
<stop offset="0.834695" stop-color="#FFCB00"/>
</linearGradient>
<linearGradient id="paint1_linear_148_64" x1="267.078" y1="135.378" x2="267.078" y2="376.378" gradientUnits="userSpaceOnUse">
<stop stop-color="#FF9500"/>
<stop offset="0.817308" stop-color="#FFCB00"/>
<stop offset="1" stop-color="#FFEA00"/>
</linearGradient>
<linearGradient id="paint2_linear_148_64" x1="267.078" y1="135.378" x2="267.078" y2="376.378" gradientUnits="userSpaceOnUse">
<stop stop-color="#FF9500"/>
<stop offset="0.817308" stop-color="#FFCB00"/>
<stop offset="1" stop-color="#FFEA00"/>
</linearGradient>
<linearGradient id="paint3_linear_148_64" x1="266.459" y1="137.806" x2="162.518" y2="390.219" gradientUnits="userSpaceOnUse">
<stop offset="0.781024" stop-color="#FF9500"/>
<stop offset="0.834695" stop-color="#FFCB00"/>
</linearGradient>
<linearGradient id="paint4_linear_148_64" x1="177.598" y1="99.4953" x2="255.782" y2="267.162" gradientUnits="userSpaceOnUse">
<stop stop-color="#FF9500"/>
<stop offset="0.817308" stop-color="#FFCB00"/>
<stop offset="1" stop-color="#FFEA00"/>
</linearGradient>
</defs>
</svg>
